<?xml version="1.0" standalone="no"?>
<!DOCTYPE svg PUBLIC "-//W3C//DTD SVG 1.1//EN" "http://www.w3.org/Graphics/SVG/1.1/DTD/svg11.dtd" >
<!--
2013-9-30: Created.
-->
<svg>
<metadata>
Created by iconfont
</metadata>
<defs>

<font id="iconfont" horiz-adv-x="1024" >
  <font-face
    font-family="iconfont"
    font-weight="500"
    font-stretch="normal"
    units-per-em="1024"
    ascent="896"
    descent="-128"
  />
    <missing-glyph />
    
    <glyph glyph-name="bangzhu" unicode="&#58892;" d="M511.997955 812C229.510262 812 0.509619 582.998336 0.509619 300.511664c0-282.487694 229.000642-511.489359 511.488336-511.489359s511.488336 229.001664 511.488336 511.489359C1023.486292 582.998336 794.486672 812 511.997955 812M511.997955-146.92102c-247.109771 0-447.432684 200.321891-447.432684 447.432684 0 247.109771 200.322913 447.431661 447.432684 447.431661 247.109771 0 447.432684-200.321891 447.432684-447.431661C959.430639 53.400871 759.107727-146.92102 511.997955-146.92102M412.431481 409.022295c0 0 16.044071 98.734317 114.778388 87.62594 98.733295-11.107355 76.518585-85.158093 66.644131-99.967218-9.872409-24.68358-101.202164-83.92417-116.011289-119.715104-14.810147-35.790934-13.576224-102.43711-13.576224-102.43711l88.860886 0c0 0-4.936716 70.347946 44.430443 99.96824 49.367159 29.620296 133.290306 116.012312 96.265449 198.702558-59.24059 95.031524-117.246235 104.904957-192.530896 102.436087-75.284661-2.467847-154.272116-39.493727-180.189617-154.272116C382.811186 412.725086 412.431481 409.022295 412.431481 409.022295M463.032563 141.206737l92.562656 0 0-101.188874-92.562656 0 0 101.188874Z"  horiz-adv-x="1024" />

    
    <glyph glyph-name="second" unicode="&#58987;" d="M657.213 203.989c198.528 34.618 302.066 272.621 302.066 485.914-63.067 0-134.414 0-162.918 0 9.62 68.769 15.646 124.139 15.646 143.373-91.65 0-506.526 0-598.174 0 3.318-36.777 7.833-87.304 14.016-143.373-28.797 0-99.964 0-163.857 0 0-216.193 104.931-453.824 307.677-486.46 32.152-41.288 56.080-58.536 83.364-67.988 0-19.12 0-47.786 0-47.786l-115.771 0-86.838-152.96h520.991l-86.838 152.959h-115.774v47.786c25.028 6.397 57.28 33.257 86.408 68.536zM715.531 297.96c24.752 57.706 52.938 207.107 72.409 334.572 12.798 0 32.918 0 60.302 0 0-179.8-78.459-313.975-135.834-341.377 1.042 2.277 2.141 4.551 3.122 6.805zM175.244 632.531c26.479 0 46.304 0 59.318 0 15.94-128.166 40.496-269.924 78.457-341.552-58.14 26.842-137.775 161.753-137.775 341.552zM384.166 332.578v59.415l104.094 99.883c21.831 20.896 37.112 38.439 45.848 52.632 8.731 14.188 13.099 28.926 13.099 44.211 0 34.463-18.48 51.696-55.439 51.696-31.035 0-61.054-12.478-90.059-37.427v67.134c31.031 20.585 66.276 30.877 105.731 30.877 35.709 0 64.013-9.086 84.913-27.252 20.895-18.169 31.345-43.316 31.345-75.439 0-42.419-25.731-86.864-77.193-133.333l-75.556-68.070v-1.404h149.473v-62.924l-236.257-0z"  horiz-adv-x="1024" />

    
    <glyph glyph-name="sousuo" unicode="&#58893;" d="M988 23.0625c21.875-24.9375 33.75-46.8125 35.6875-65.5s-5.3125-37-21.625-54.9375c-18.6875-21-39.375-31-62-29.8125C917.5-126 895.625-116.875 874.625-99.75L678.125 89.6875c-35-22.5625-72.625-40.125-112.7875-52.5625-40.1625-12.5-82.4375-18.75-126.875-18.75-60.8125 0-117.6875 11.5-170.725 34.5-53 23-99.375 54.375-139.125 94.125S57.5 233.125 34.5 286.125 0 396.025 0 456.8375c0 60.7875 11.5 117.6875 34.5 170.725 23 53 54.375 99.375 94.125 139.125 39.75 39.7875 86.125 71.1625 139.125 94.125 53.0375 23 109.9125 34.5 170.725 34.5s117.725-11.5 170.725-34.5c53-22.975 99.375-54.35 139.125-94.125 39.75-39.75 71.125-86.125 94.125-139.125 23-53.0375 34.5-109.9375 34.5-170.725 0-46-6.625-89.6625-19.875-130.975-13.25-41.25-31.9375-79.5-56.125-114.5625l38.5625-38.5625c18.75-18.75 38.4375-38.25 59.0625-58.5 20.6875-20.25 39.5625-39.375 56.6875-57.25C972.4375 39 983.375 27.75 988 23.0625zM443.1625 164.5c40.5375 0 78.725 7.625 114.6 22.875 35.875 15.125 67 36 93.5 62.5 26.5 26.5 47.375 57.6875 62.5625 93.5625 15.1875 35.85 22.8125 74.0375 22.8125 114.5625s-7.625 78.75-22.8125 114.6c-15.1875 35.875-36.0625 67.0375-62.5625 93.5625-26.5 26.5-57.625 47.35-93.5 62.5375-35.875 15.225-74.0625 22.8125-114.6 22.8125s-78.75-7.6-114.6-22.8125c-35.85-15.1875-67.0375-36.0375-93.5375-62.5375-26.5-26.5375-47.375-57.6875-62.5625-93.5625-15.1875-35.85-22.8125-74.0625-22.8125-114.6s7.625-78.725 22.8125-114.5625c15.1875-35.875 36.0625-67.0625 62.5625-93.5625 26.5-26.5 57.6875-47.375 93.5375-62.5C364.4125 172.125 402.625 164.5 443.1625 164.5L443.1625 164.5z"  horiz-adv-x="1024" />

    
    <glyph glyph-name="suo" unicode="&#58946;" d="M808.421053 478.315789l-53.894737 0 0 107.789474c0 134.736842-107.789474 242.526316-242.526316 242.526316-134.736842 0-242.526316-107.789474-242.526316-242.526316l0-107.789474L215.578947 478.315789c-29.642105 0-53.894737-24.252632-53.894737-53.894737l0-431.157895c0-29.642105 24.252632-53.894737 53.894737-53.894737l592.842105 0c29.642105 0 53.894737 24.252632 53.894737 53.894737l0 431.157895C862.315789 454.063158 838.063158 478.315789 808.421053 478.315789zM565.894737 168.421053l0-53.894737c0-21.557895-18.863158-40.421053-40.421053-40.421053-21.557895 0-40.421053 18.863158-40.421053 40.421053l0 53.894737c-16.168421 13.473684-26.947368 32.336842-26.947368 53.894737 0 37.726316 29.642105 67.368421 67.368421 67.368421 37.726316 0 67.368421-29.642105 67.368421-67.368421C592.842105 200.757895 582.063158 181.894737 565.894737 168.421053zM673.684211 478.315789 350.315789 478.315789l0 107.789474c0 88.926316 72.757895 161.684211 161.684211 161.684211s161.684211-72.757895 161.684211-161.684211L673.684211 478.315789z"  horiz-adv-x="1024" />

    
    <glyph glyph-name="app" unicode="&#58884;" d="M791.26528-128 232.72448-128c-16.90624 0-46.5408 29.40928-46.5408 46.55104L186.18368 849.4592C186.18368 866.58048 215.81824 896 232.72448 896l558.5408 0c16.88576 0 46.55104-29.41952 46.55104-46.5408l0-930.90816C837.81632-98.59072 808.16128-128 791.26528-128zM791.26528 826.19392c0 8.54016-14.81728 23.25504-23.26528 23.25504L256 849.44896c-8.45824 0-23.27552-14.71488-23.27552-23.25504l0-884.3776c0-8.59136 14.81728-23.26528 23.27552-23.26528l512 0c8.448 0 23.26528 14.68416 23.26528 23.26528L791.26528 826.19392zM698.18368 81.44896 325.81632 81.44896c-16.90624 0-46.5408 29.40928-46.5408 46.55104L279.27552 733.09184c0 17.152 29.63456 46.5408 46.5408 46.5408l372.35712 0c16.88576 0 46.55104-29.39904 46.55104-46.5408L744.72448 128C744.73472 110.85824 715.06944 81.44896 698.18368 81.44896zM699.50464 709.96992c0 8.59136-16.13824 23.11168-24.58624 23.11168L349.09184 733.0816c-8.45824 0-24.58624-14.52032-24.58624-23.11168L324.5056 151.4496c0-8.59136 16.13824-23.4496 24.58624-23.4496l325.81632 0c8.448 0 24.58624 14.85824 24.58624 23.4496L699.4944 709.96992zM523.52 802.67264l-23.01952 0c-6.36928 0-11.52 5.29408-11.52 11.81696 0 6.52288 5.16096 11.8272 11.52 11.8272l23.01952 0c6.33856 0 11.53024-5.31456 11.53024-11.8272C535.05024 807.96672 529.85856 802.67264 523.52 802.67264zM507.99616 50.60608c25.344 0 45.88544-20.85888 45.88544-46.56128 0-25.69216-20.55168-46.57152-45.88544-46.57152-25.32352 0-45.86496 20.87936-45.86496 46.57152C462.1312 29.7472 482.68288 50.60608 507.99616 50.60608zM507.99616-11.47904c8.45824 0 15.29856 6.93248 15.29856 15.53408 0 8.56064-6.84032 15.52384-15.29856 15.52384s-15.27808-6.9632-15.27808-15.52384C492.72832-4.54656 499.54816-11.47904 507.99616-11.47904z"  horiz-adv-x="1024" />

    
    <glyph glyph-name="dagouxuanzhong" unicode="&#58886;" d="M0.021487-127.97851100000003l1023.957021 0L1023.978509 895.978511 0.021487-127.97851100000003zM640.254034-28.22252900000001l-204.149587 203.12628 72.143087 71.119781 132.0065-136.099724 249.174036 257.361509 71.120804-72.143087L640.254034-28.22252900000001z"  horiz-adv-x="1024" />

    
    <glyph glyph-name="disan" unicode="&#58885;" d="M677.888 178.8928c226.2528 39.4496 344.2176 310.656 344.2176 553.728h-185.6512c10.9824 78.3872 17.8432 141.4656 17.8432 163.3792H172.6208c3.7888-41.9072 8.9344-99.4816 15.9744-163.3792H1.8688c0-246.3744 119.5776-517.1712 350.6176-554.368 36.6592-47.0528 63.8976-66.688 95.0016-77.44v-54.5024h-131.9168L216.6016-128h593.7152l-98.944 174.3104h-131.9424v54.5024c28.5184 7.2448 65.28 37.888 98.4576 78.08z m66.4576 107.0592c28.2368 65.7664 60.3136 236.032 82.5344 381.312h68.736c0-204.9024-89.4208-357.8112-154.8032-389.0432 1.152 2.5856 2.432 5.1712 3.5328 7.7312zM128.64 667.2384h67.6096c18.176-146.0736 46.1568-307.6352 89.4208-389.248-66.2784 30.6176-157.0304 184.3712-157.0304 389.248z m369.4336-319.7952c-35.84 0-64.7168 5.9136-86.6304 17.7664v64.128c23.2448-17.408 50.4064-26.112 81.4592-26.112 19.6608 0 35.2512 4.352 46.7968 13.056s17.3312 21.0688 17.3312 37.12c0 16.512-6.8864 29.1072-20.5824 37.8112-13.7472 8.704-32.9728 13.056-57.728 13.056h-31.0528v56.0128h28.5696c46.7968 0 70.1952 15.744 70.1952 47.2576 0 29.696-17.92 44.544-53.7856 44.544-23.3984 0-46.1312-7.6544-68.1728-22.9376V689.2288c24.0128 12.4416 52.2752 18.6624 84.8128 18.6624 32.9984 0 59.776-7.6032 80.3328-22.8352s30.8224-36.3264 30.8224-63.3344c0-45.5936-23.0912-74.24-69.2992-85.9392v-1.1264c24.2944-2.688 43.7248-11.5968 58.2656-26.6752s21.8368-33.408 21.8368-55.0144c0-33.152-12.1344-59.0336-36.3264-77.6192-24.2176-18.5856-56.4992-27.904-96.8448-27.904z"  horiz-adv-x="1024" />

    
    <glyph glyph-name="disiming" unicode="&#58990;" d="M512-51.2l-120.832-51.2h-32.768V179.2h307.2v-281.6h-34.4064l-119.1936 51.2zM512 793.6c-155.2384 0-281.6-126.3616-281.6-281.6S356.7616 230.4 512 230.4s281.6 126.3616 281.6 281.6S667.2384 793.6 512 793.6zM512 896C300.032 896 128 723.968 128 512S300.032 128 512 128s384 172.032 384 384S723.968 896 512 896z m0-716.8c-183.9104 0-332.8 148.8896-332.8 332.8S328.0896 844.8 512 844.8s332.8-148.8896 332.8-332.8S695.9104 179.2 512 179.2zM569.7536 444.8256l-6.144-70.656-28.8768 2.2528 5.7344 68.1984-138.8544-2.8672-14.1312 19.8656 73.5232 185.5488 27.0336-10.4448-65.3312-165.888 120.0128 2.4576 11.8784 143.1552 29.2864-2.4576-11.8784-139.8784 58.7776 1.4336 1.024-29.2864-62.0544-1.4336z"  horiz-adv-x="1024" />

    
    <glyph glyph-name="qq" unicode="&#58942;" d="M512 384m-460.8 0a460.8 460.8 0 1 1 921.6 0 460.8 460.8 0 1 1-921.6 0ZM355.328 398.848l-0.512 2.56-0.512 3.584-0.512 2.048v7.168l0.512 3.072 1.024 3.072 1.024 3.584 1.024 4.096 2.048 3.584 3.072 3.584v5.12l0.512 3.584 1.024 4.096 1.024 4.096 0.512 2.048 1.024 1.536 1.536 2.048 1.536 1.536v9.216l0.512 5.12 0.512 5.632 1.536 7.168 2.048 7.168 1.536 4.096 1.536 4.608 1.536 4.096 2.048 4.096 2.048 5.12 2.56 4.096 2.048 5.12 3.072 4.608 1.536 3.072 1.536 2.048 3.584 5.12 3.584 4.608 4.096 5.12 4.608 5.12 4.608 5.12 4.608 5.12 6.144 5.12 3.584 3.584 4.608 3.584 4.608 3.072 4.608 3.072 4.608 2.56 5.632 2.56 6.144 2.56 5.632 2.048 5.632 2.048 6.656 2.048 6.144 1.536 6.144 1.536 6.656 1.024 6.656 1.024 6.656 1.024 6.656 0.512h20.48l6.656-1.024 6.656-1.024 7.168-0.512 6.656-1.536 6.656-1.536 6.656-2.048 6.656-2.048 6.656-2.048 6.144-3.072 6.656-2.56 5.632-3.072 6.144-3.584 5.12-3.584 5.12-3.584 2.56-2.048 2.048-1.536 4.608-3.584 3.584-3.584 4.096-4.096 3.584-4.096 3.072-4.096 4.096-4.608 2.048-5.12 2.56-4.096 2.56-4.608 2.56-4.096 3.584-9.216 2.048-4.096 1.536-4.096 1.536-5.12 1.024-4.096 1.024-4.096 1.024-4.608 2.56-7.68 1.024-6.656 1.024-6.656 0.512-5.12 1.024-8.192 0.512-1.536 1.024-1.536 2.048-4.096 2.048-2.56 1.024-3.072 2.048-3.072 1.536-4.096 1.024-3.584 1.024-4.096 1.024-4.608 0.512-2.048v-10.24l-1.024-2.56-1.024-5.632-1.536-2.56-1.024-3.072v-1.024l0.512-1.024 1.024-2.56 6.144-8.704 4.608-6.656 2.56-4.608 3.072-5.12 2.56-5.12 3.072-6.144 3.072-6.144 3.584-7.68 2.048-4.096 1.536-4.608 2.048-4.608 1.536-4.096 1.024-4.608 1.024-4.096 1.024-8.192 1.024-8.192 1.024-7.168v-10.24l-1.024-3.584-0.512-6.144-1.024-6.144-1.536-5.12-1.024-2.048-1.024-2.56-1.024-1.536-1.536-2.048-1.024-1.536-1.024-1.536-1.536-1.536-1.536-1.024-1.536-1.024-1.536-0.512-1.024-0.512H712.192l-1.024 0.512-2.56 1.024-1.024 0.512-1.024 1.024-1.024 1.024-1.024 1.024-2.048 2.56-2.56 3.072-1.536 3.072-1.536 2.56-2.048 3.072-2.048 5.632-3.072 5.632h-0.512l-1.024-1.024-0.512-1.536-1.024-1.536-2.048-5.632-3.072-7.68-3.584-9.216-3.072-5.12-3.072-4.608-3.072-5.632-4.096-5.632-2.048-2.048-2.048-3.072-5.12-5.632 1.024-1.024 2.56-1.536 10.752-5.632 5.12-2.56 4.608-2.56 4.608-3.584 4.096-3.584 2.048-1.536 1.536-1.536 1.024-2.56 1.536-2.048 0.512-2.048 1.024-2.56v-2.048l0.512-2.56-0.512-1.536v-3.584l-1.024-1.024v-1.024l-1.024-1.536-2.048-2.56-1.536-2.56-1.536-2.048-1.024-1.024-3.072-2.56-3.584-2.048-3.584-2.048-4.096-1.536-4.608-2.048-2.048-0.512-2.048-0.512-5.12-1.536-5.12-1.024-5.632-1.024-5.632-1.024-5.632-0.512-6.144-0.512h-20.992l-6.656 0.512-6.656 0.512-6.656 1.024-7.168 0.512-7.168 1.024-6.656 2.048-7.168 1.024-6.656 2.048-7.168 2.56-6.656 2.048-3.584 1.536-3.072 1.024-2.048 0.512-2.048 0.512h-11.776l-3.584 0.512-4.096 0.512-2.56-2.56-4.096-2.56-5.12-2.048-5.632-3.072-3.072-2.048-3.584-1.024-7.68-3.072-4.096-1.024-4.608-1.536-6.144-1.536H460.8l-4.096-0.512-4.096-0.512-5.12-0.512h-19.968l-11.776 0.512-11.264 1.024-5.12 1.024-5.632 0.512-5.12 0.512-5.12 1.024-5.12 2.048-5.632 3.584-4.608 1.536-4.096 2.048-3.584 2.048-3.584 2.048-3.584 2.048-1.024 1.536-1.024 1.536-1.024 1.024-1.024 1.536-1.536 1.536-0.512 1.536-1.024 3.072-0.512 1.536v7.68l0.512 2.048v5.632l1.024 2.56 0.512 2.56 1.536 2.56 1.024 1.024 1.024 1.536 2.048 2.56 1.536 1.536 1.536 1.024 1.536 1.024 2.56 1.024 1.536 1.024 2.56 1.024 2.56 1.024 2.56 0.512 3.072 0.512 3.072 0.512 3.584 0.512h3.584l1.024 0.512 0.512 0.512-1.024 1.024-2.048 1.024-4.608 4.608-3.584 3.072-3.584 3.072-4.096 4.096-4.096 4.608-4.608 5.632-1.536 3.072-2.56 3.072-2.048 3.584-1.536 3.584-2.56 3.584-2.048 4.096-2.048 4.096-2.048 5.12-1.024 4.608-1.536 5.12h-0.512v0.512l-1.024-0.512-1.024-1.024v-2.048l-1.024-1.536-2.048-4.096-1.024-2.56-2.048-2.048-2.048-2.56-2.048-3.072-2.56-2.048-3.072-2.56-2.048-2.56-3.072-1.536-3.072-2.048-2.56-1.024-3.584-1.024-3.072-0.512H300.544l-0.512 0.512-1.024 1.536-1.024 0.512-1.536 3.072-0.512 1.536-1.024 2.56-0.512 2.56-0.512 2.56-1.024 6.144-0.512 3.072V286.72l0.512 8.704 0.512 4.608 1.024 4.608 0.512 4.608 1.536 4.608 1.024 5.12 1.536 4.608 2.048 6.144 2.048 4.608 2.048 4.608 2.56 5.632 2.56 5.12 3.584 5.632 3.584 4.608 3.584 5.632 3.072 3.584 4.096 4.608 4.096 4.608 2.048 2.048 2.048 2.56 3.584 3.072 3.584 3.072 5.632 5.12 4.096 3.072z"  horiz-adv-x="1024" />

    
    <glyph glyph-name="xinlang" unicode="&#58625;" d="M375.112 308.673c-22.418-2.341-38.474-21.887-38.474-40.573 0-18.732 18.050-31.67 40.481-29.049 22.338 2.549 40.469 19.822 40.469 38.485 0 18.755-16.739 33.593-42.475 31.137zM432.008 324.113c-7.685-5.565-9.263-16.229-5.078-22.86 4.012-6.769 13.354-7.557 20.937-1.901 7.42 5.843 10.307 16.045 6.283 22.861-4.013 6.63-13.241 8.556-22.142 1.9zM510 831.666c-246.403 0-446.554-199.895-446.554-446.459 0-246.474 200.153-446.207 446.554-446.207 246.588 0 446.46 199.733 446.46 446.207-0 246.564-199.873 446.459-446.46 446.459zM754.038 273.269c-49.209-104.537-211.488-155.404-331.722-145.991-114.297 8.996-261.241 46.947-276.427 185.241 0 0-8.020 62.646 52.699 143.699 0 0 87.336 121.995 189.091 156.797 101.815 34.658 113.674-23.998 113.674-58.634-5.401-29.398-15.522-46.669 22.699-34.8 0 0 100.073 46.416 141.261 5.24 33.224-33.27 5.482-78.966 5.482-78.966s-13.784-15.277 14.571-20.795c28.447-5.658 117.891-47.088 68.672-151.791zM655.353 562.077c-10.896 0-19.624 8.81-19.624 19.615 0 10.989 8.727 19.8 19.624 19.8 0 0 122.681 22.698 108.027-109.153 0-0.788-0.092-1.389-0.255-2.084-1.403-9.32-9.597-16.485-19.289-16.485-10.921 0-19.8 8.741-19.8 19.638 0.001-0.001 19.452 88.1-68.683 68.67zM862.586 470.129c-3.221-47.481-14.328-30.857-27.496-30.857-15.775 0-28.515 7.953-28.515 23.74 0 13.701 5.655 25.177 5.655 25.177 1.67 5.772 15.024 40.343-8.81 93.828-43.61 73.285-131.476 73.748-141.863 69.553-10.482-4.081-25.92-6.494-25.92-6.494-15.882 0-28.61 12.683-28.61 28.38 0 13.167 8.811 24.088 20.842 27.497 0 0 0.277 0.045 0.708 0.137 0.87 0.184 1.749 0.325 2.714 0.418 12.205 2.365 55.815 19.057 98.241 9.135 75.906-17.713 180.098-98.071 133.219-240.516l-0.165 0.001zM431.219 449.403c-119.376-5.473-215.858-69.415-215.858-149.169 0-79.66 96.482-139.522 215.858-133.956 119.447 5.425 216.123 80.217 216.123 159.855 0.001 79.59-96.676 128.789-216.123 123.271zM512.526 248.834c-36.549-47.204-108.885-70.225-179.123-32.202-33.408 18.152-32.203 53.74-32.203 53.74s-13.861 112.491 106.185 126.517c120.234 13.981 141.701-100.852 105.141-148.055z"  horiz-adv-x="1024" />

    
    <glyph glyph-name="shiliangzhinengduixiang" unicode="&#58883;" d="M1083.0986627531856 624.1190130725927c-112.34175780029626 112.39353852207405-294.5241421748148 112.39353852207405-406.91883121777784 0-112.39353852207405-112.39353852207405-112.39353852207405-294.57707463111103 0-406.9176806968889 52.065753618962944-52.08071281777777 123.99950537007406-84.29342750340741 203.4599902625185-84.29342750340741 79.45933437155554 0 151.39308612266666 32.21386520651851 203.45884095525923 84.29342750340741 52.08071281777777 52.06460309807407 84.29342750340741 123.99950537007406 84.29342750340741 203.45884095525923s-32.21386520651851 151.39423664355553-84.29342750340741 203.4588397416296zM613.5379874631109 154.55718726162968C545.4073007146667 222.6706125558519 503.26634078103683 316.77836674844457 503.26634078103683 420.72806498607406 503.26634078103683 628.5929373392592 671.7749494447406 797.101546002963 879.6398217979255 797.101546002963s376.3734822305185-168.50860866370368 376.3734822305185-376.3734810168888c0-103.94969702399996-42.14211166814813-198.0574512165926-110.27164668207406-266.16972720355557-68.10767268977777-68.09041123555556-162.1866590056296-110.20260450607407-266.1018355484444-110.20260450607407s-197.99416285866667 42.112193270518524-266.10183433481484 110.20260450607407v-0.0011505208888888884z m703.0482000402961-170.84337963614814c-9.297661496888885-9.311470174814811-22.14753560651851-15.071877044148149-36.34373032770371-15.071878257777776-14.197345242074075 0-27.0472193517037 5.760408082962962-36.34373032770371 15.07072773688889l-72.63452819911112 72.68631013451852c-9.295360455111108 9.295360455111108-15.044260901925925 22.13487866311111-15.044260901925925 36.31841522725926 0 28.36592260740741 22.995603000888888 51.35922335288888 51.360373873777775 51.35922335288888 14.182386043259257 0 27.02305477214815-5.748900446814814 36.31841522725926-15.041959860148143l72.68515961362964-72.63567872c9.336785275259258-9.285003339851851 15.113303077925924-22.139480746666663 15.113303077925924-36.34257980681482s-5.777668323555555-27.057576466962956-15.111002036148149-36.34142928592592v-0.0011505208888888884z"  horiz-adv-x="1820" />

    
    <glyph glyph-name="xiaojiantou" unicode="&#58908;" d="M511.6850000000001 471.59299999999985c45.215999999999994-1.4210854715202004e-14 90.44299999999998 0.20599999999996044 135.66200000000003-0.06100000000006389 32.468-0.1930000000000156 44.38799999999998-19.924000000000014 28.282999999999973-47.86700000000001-45.08600000000003-78.20399999999995-90.53700000000009-156.20699999999988-136.23500000000007-234.04999999999993-15.820000000000014-26.95299999999999-38.737000000000016-27.320999999999984-54.395999999999994-0.7139999999999738-46.13799999999998 78.38800000000002-91.91699999999992 157.01200000000009-137.39899999999986 235.79800000000006-15.083999999999989 26.132000000000005-2.425999999999984 46.63199999999999 28.41500000000002 46.82499999999998 45.218999999999994 0.2959999999999816 90.451 0.06899999999995288 135.67000000000002 0.06899999999994577z"  horiz-adv-x="1024" />

    
    <glyph glyph-name="diwuming" unicode="&#58894;" d="M511.115993-75.50895l-123.881875-52.490051H353.637848V160.708767h314.954292v-288.706769h-35.272388L511.115993-75.50895z m0 0M511.115993 895.610437c-217.31994 0-393.695861-176.375922-393.695861-393.694862 0-217.31994 176.375922-393.695861 393.695861-393.695861 217.320938 0 393.695861 176.375922 393.695861 393.695861C904.811854 719.235515 728.436931 895.610437 511.115993 895.610437z m0-734.90167c-188.556243 0-341.200815 152.651565-341.200816 341.206808S322.55975 843.11739 511.115993 843.11739c188.555244 0 341.20581-152.645572 341.20581-341.200816S699.671236 160.708767 511.115993 160.708767zM511.110998 790.618349c-159.151266 0-288.70577-129.544515-288.705769-288.70577 0-159.161254 129.554504-288.70577 288.705769-288.70577 159.161254 0 288.716758 129.543517 288.716758 288.70577C799.826757 661.073833 670.272253 790.618349 511.110998 790.618349z m66.984773-421.406741l-16.581378-8.400566-176.17215 38.63661 6.512686 28.557928 163.566307-36.119437 34.222566 86.512843-139.623196 14.693498-12.605843 17.22066 19.947598 107.079745 14.493722 11.97655h138.574375v-28.977457H484.03141l-15.113027-80.209921 143.19918-15.113027 11.547032-19.957587-45.568824-115.899839z"  horiz-adv-x="1024" />

    
    <glyph glyph-name="huiyuanjulebu" unicode="&#58920;" d="M794.819048 318.171429c-26.819048 0-53.638095-4.87619-78.019048-14.628572-34.133333 29.257143-75.580952 53.638095-119.466667 70.704762 82.895238 48.761905 138.971429 138.971429 138.971429 241.371429C733.866667 771.657143 609.52381 896 455.92381 896S175.542857 771.657143 175.542857 618.057143c0-102.4 56.07619-192.609524 138.971429-241.371429C170.666667 323.047619 68.266667 188.952381 58.514286 28.038095v-4.87619c0-17.066667 14.628571-31.695238 31.695238-31.695238S121.904762 8.533333 121.904762 25.6c12.190476 175.542857 156.038095 312.07619 334.019048 312.07619 75.580952 0 143.847619-24.380952 199.923809-65.828571-51.2-41.447619-85.333333-104.838095-85.333333-175.542857 0-124.342857 99.961905-224.304762 224.304762-224.304762s224.304762 99.961905 224.304762 224.304762-102.4 221.866667-224.304762 221.866667zM241.371429 618.057143c0 119.466667 97.52381 214.552381 214.552381 214.552381s214.552381-97.52381 214.55238-214.552381-97.52381-214.552381-214.55238-214.552381-214.552381 95.085714-214.552381 214.552381z m553.447619-682.666667c-87.771429 0-158.47619 70.704762-158.476191 158.476191s70.704762 158.47619 158.476191 158.47619 158.47619-70.704762 158.47619-158.47619-70.704762-158.47619-158.47619-158.476191zM858.209524 169.447619c-9.752381 0-19.504762-7.314286-24.380953-17.066667l-41.447619-99.961904-43.885714 99.961904c-4.87619 9.752381-14.628571 17.066667-24.380952 17.066667-19.504762 0-31.695238-19.504762-24.380953-36.571429l51.2-117.028571c7.314286-17.066667 24.380952-26.819048 41.447619-26.819048s34.133333 9.752381 41.447619 26.819048l51.2 117.028571c4.87619 17.066667-7.314286 36.571429-26.819047 36.571429z"  horiz-adv-x="1024" />

    
    <glyph glyph-name="cart-copy" unicode="&#58626;" d="M332.8 105.47199999999998q19.456 0 36.864-7.168t30.208-19.968 20.48-30.208 7.68-36.864-7.68-36.864-20.48-30.208-30.208-20.48-36.864-7.68q-20.48 0-37.888 7.68t-30.208 20.48-20.48 30.208-7.68 36.864 7.68 36.864 20.48 30.208 30.208 19.968 37.888 7.168zM758.784 103.42399999999998q19.456 0 37.376-7.168t30.72-19.968 20.48-30.208 7.68-36.864-7.68-36.864-20.48-30.208-30.72-20.48-37.376-7.68-36.864 7.68-30.208 20.48-20.48 30.208-7.68 36.864 7.68 36.864 20.48 30.208 30.208 19.968 36.864 7.168zM930.816 685.056q28.672 0 44.544-7.68t22.528-18.944 6.144-24.064-3.584-22.016-13.312-37.888-22.016-62.976-23.552-68.096-18.944-53.248q-13.312-40.96-33.28-56.832t-49.664-15.872l-35.84 0-65.536 0-86.016 0-96.256 0-253.952 0 14.336-92.16 517.12 0q49.152 0 49.152-41.984 0-20.48-9.728-35.84t-38.4-14.336l-49.152 0-94.208 0-118.784 0-119.808 0-99.328 0-55.296 0q-20.48 0-34.304 9.216t-23.04 24.064-14.848 32.256-8.704 32.768q-1.024 6.144-5.632 29.696t-11.264 58.88-14.848 78.848-16.384 87.552q-19.456 103.424-44.032 230.4l-76.8 0q-15.36 0-25.6 7.68t-16.896 18.432-9.216 23.04-2.56 22.528q0 20.48 13.824 33.792t37.376 12.288l103.424 0q20.48 0 32.768-6.144t19.456-15.36 10.24-18.944 5.12-16.896q2.048-8.192 4.096-23.04t4.096-30.208q3.072-18.432 6.144-38.912l700.416 0zM892.928 593.9200000000001l-641.024 2.048 35.84-185.344 535.552-1.024z"  horiz-adv-x="1028" />

    
    <glyph glyph-name="xiaoren" unicode="&#58627;" d="M921.088 0.9220000000000255c-1.2288 0-1.2288 1.28-1.2288 2.56v1.2288l-1.1776 7.5776c-15.6672 142.08-104.806 262.81-230.144 318.157 73.5232 51.5584 118.118 138.342 118.118 232.653C806.656 717.8240000000001 684.954 844.8 536.73 844.8c-74.7008 0-138.547-27.648-191.539-82.9952-51.8144-54.0672-78.336-120.73-78.336-198.656 0-94.3616 45.7728-181.146 118.067-232.704-124.109-54.0672-210.842-173.568-230.093-313.139C153.6 14.745999999999981 153.6 12.288000000000011 153.6 9.727999999999951V-0.30700000000001637c0-20.1216 15.6672-40.2432 38.5536-40.2432 20.48 0 38.5536 18.8928 38.5536 40.2432v1.2288c20.48 152.218 138.547 272.896 289.178 281.702 10.8032-1.2288 22.8864-1.2288 33.7408 0 74.7008-3.7376 139.776-32.6656 193.997-86.7328a313.446 313.446 0 0 0 95.1296-194.97h1.2288v-1.2288c0-20.1216 15.6672-40.2432 38.5536-40.2432 20.48 0 38.5536 18.8928 38.5536 40.2432l-1.2288 1.2288h1.2288Zm-384.358 360.96c-104.806 0-192.768 91.8016-192.768 201.216 0 56.576 19.3024 103.117 56.6272 142.131 37.376 38.912 83.1488 59.0848 136.192 59.0848 52.992 0 98.7648-20.1216 136.09-59.0848 37.376-39.0144 56.6784-85.504 56.6784-142.131 0-110.694-86.784-201.216-192.819-201.216Z"  horiz-adv-x="1024" />

    
    <glyph glyph-name="dianzan" unicode="&#58628;" d="M782.036 448.35h-172.29c66.761 246.563-45.998 259.156-45.998 259.156-47.791 0-37.884-37.791-41.498-44.092 0-120.58-128.074-215.065-128.074-215.065v-341.946c0-33.754 45.998-45.91 64.042-45.91h258.866c24.363 0 44.202 63.892 44.202 63.892 64.043 217.77 64.043 282.564 64.043 282.564 0.001 44.993-43.293 41.398-43.293 41.398v0 0zM782.036 448.35zM323.472 448.237h-103.167c-21.306 0-21.635-20.927-21.635-20.927l21.306-344.864c0-21.95 21.987-21.95 21.987-21.95h89.291c18.602 0 18.437 14.52 18.437 14.52v347.069c0 26.486-26.221 26.151-26.221 26.151v0 0zM323.472 448.237z"  horiz-adv-x="1024" />

    
    <glyph glyph-name="dagou" unicode="&#59004;" d="M240.4 405.6l54.2 60.8 230.5-158.9s91.6 137 228.8 255c137.2 118 230.5 165 230.5 165l23-23.8S851.5 598.1 726.8 405.6C602.1 213.1 558.4 107.5 558.4 107.5s-137.2 142.9-205.8 205c-68.6 62.1-112.2 93.1-112.2 93.1M443.2-47c-232 0-420.7 188.7-420.7 420.7s188.7 420.7 420.7 420.7c96.5 0 187.4-31.8 262.6-92L692.7 686c-71.5 57.2-157.8 87.4-249.5 87.4-220.4 0-399.7-179.3-399.7-399.7C43.5 153.3 222.8-26 443.2-26 663.6-26 843 153.3 843 373.7h21c-0.1-232-188.8-420.7-420.8-420.7z"  horiz-adv-x="1024" />

    
    <glyph glyph-name="caidanlan" unicode="&#58895;" d="M0.034133 795.170133a100.829867 100.829867 0 1 1 201.591467 0 100.829867 100.829867 0 0 1-201.591467 0z m1171.0464-46.421333H374.613333a57.821867 57.821867 0 0 0 0 115.575467h796.672a57.821867 57.821867 0 1 0-0.2048-115.5072zM0.034133 387.003733a100.829867 100.829867 0 1 1 201.591467 0 100.829867 100.829867 0 0 1-201.591467 0z m1171.0464-46.626133H374.613333a57.821867 57.821867 0 0 0 0 115.5072h796.672a57.821867 57.821867 0 1 0-0.2048-115.5072zM0.034133-21.504a100.829867 100.829867 0 1 1 201.591467 0 100.829867 100.829867 0 0 1-201.591467 0z m1171.0464-46.4896H374.613333a57.821867 57.821867 0 0 0 0 115.5072h796.672a57.821867 57.821867 0 1 0-0.2048-115.5072z"  horiz-adv-x="1232" />

    
    <glyph glyph-name="weixin" unicode="&#58887;" d="M710.4 384a24.32 24.32 0 0 1-23.04-24.32 23.68 23.68 0 0 1 23.04-21.76c16.64 0 29.44 10.88 29.44 21.76A26.88 26.88 0 0 1 710.4 384M337.92 555.52a32.64 32.64 0 0 1-35.84-29.44 33.28 33.28 0 0 1 35.84-28.8 29.44 29.44 0 1 1 0 58.24M512 896a512 512 0 1 1 512-512 512 512 0 0 1-512 512zM415.36 256a278.4 278.4 0 0 0-82.56 11.52l-84.48-42.24 24.32 71.68a192 192 0 0 0-94.08 158.08c0 113.92 106.88 200.32 236.8 200.32a232.96 232.96 0 0 0 237.44-165.12 96 96 0 0 1-22.4 0 192 192 0 0 1-200.96-184.96 184.32 184.32 0 0 1 7.04-49.92 120.32 120.32 0 0 0-21.12 0.64z m347.52-81.28l16.64-60.16-64 35.84a343.68 343.68 0 0 0-71.68-12.8A186.88 186.88 0 0 0 448 307.84a186.24 186.24 0 0 0 199.68 171.52 192 192 0 0 0 200.96-171.52 175.36 175.36 0 0 0-85.76-135.04zM503.04 497.28a29.44 29.44 0 1 1 0 58.24 31.36 31.36 0 0 1-34.56-29.44 32 32 0 0 1 34.56-28.8M579.84 384a24.32 24.32 0 0 1-23.68-24.32 24.32 24.32 0 0 1 23.68-21.76c17.28 0 30.08 10.88 30.08 21.76A27.52 27.52 0 0 1 579.84 384"  horiz-adv-x="1024" />

    
    <glyph glyph-name="dingdan" unicode="&#59109;" d="M298.7 192.5h426.7v-42.7H298.7v42.7z m0-42.7v42.7h426.7v-42.7H298.7z m0 213.4h426.7v-42.7H298.7v42.7z m0-42.7v42.7h426.7v-42.7H298.7z m0 213.3h426.7v-42.7H298.7v42.7z m0-42.6v42.7h426.7v-42.7H298.7zM384 793.6h256c35.3 0 64-28.7 64-64v-42.7c0-35.3-28.7-64-64-64H384c-35.3 0-64 28.7-64 64v42.7c0 35.3 28.7 64 64 64z m0-42.7c-11.8 0-21.3-9.6-21.3-21.3v-42.7c0-11.8 9.6-21.3 21.3-21.3h256c11.8 0 21.3 9.6 21.3 21.3v42.7c0 11.8-9.6 21.3-21.3 21.3H384z m298.7-64v42.7h128c35.3 0 64-28.7 64-64v-627.2c0-35.3-28.7-64-64-64H213.3c-35.3 0-64 28.7-64 64V665.6c0 35.3 28.7 64 64 64h128v-42.7h-128c-11.8 0-21.3-9.6-21.3-21.3v-627.2c0-11.8 9.6-21.3 21.3-21.3h597.3c11.8 0 21.3 9.6 21.3 21.3V665.6c0 11.8-9.6 21.3-21.3 21.3H682.7z"  horiz-adv-x="1024" />

    
    <glyph glyph-name="sanjiaoxing1" unicode="&#58934;" d="M352.53576142 456.46820704C338.69159922 475.43983671 348.26287184 507.05921948 375.78028066 507.05921948h272.26852311c27.5174088 0 37.4305126-31.61938279 23.5863504-50.59101245l-128.8703493-181.17051758c-13.84416219-19.14254525-48.1981943-19.14254525-61.8714409 0L352.53576142 456.46820704z"  horiz-adv-x="1024" />

    
    <glyph glyph-name="dianping" unicode="&#58906;" d="M853.333333 170.666667V554.666667c0 23.509333-19.114667 42.666667-42.666666 42.666666H298.666667c-23.509333 0-42.666667-19.157333-42.666667-42.666666v-384c0-23.509333 19.157333-42.666667 42.666667-42.666667h170.666666a42.666667 42.666667 0 0 0 42.666667-42.666667v-16.298666l108.928 54.485333c5.930667 2.944 12.458667 4.48 19.072 4.48h170.666667c23.552 0 42.666667 19.157333 42.666666 42.666667zM213.333333 554.666667c0 46.933333 38.4 85.333333 85.333334 85.333333h424.192V682.666667c0 23.466667-19.2 42.666667-42.666667 42.666666H170.666667c-23.466667 0-42.666667-19.2-42.666667-42.666666v-384c0-23.466667 19.2-42.666667 42.666667-42.666667h42.666666V554.666667z m597.333334 85.333333c46.933333 0 85.333333-38.4 85.333333-85.333333v-384c0-46.933333-38.4-85.333333-85.333333-85.333334h-170.666667l-170.666667-85.333333v85.333333H298.666667c-46.933333 0-85.333333 38.4-85.333334 85.333334v42.666666H170.666667c-46.933333 0-85.333333 38.4-85.333334 85.333334V682.666667c0 46.933333 38.4 85.333333 85.333334 85.333333h512c46.933333 0 85.333333-38.4 85.333333-85.333333v-42.666667h42.666667z m-106.666667-170.666667a21.333333 21.333333 0 0 0 0-42.666666h-298.666667a21.333333 21.333333 0 0 0 0 42.666666h298.666667z m0-170.666666a21.333333 21.333333 0 0 0 0-42.666667h-298.666667a21.333333 21.333333 0 0 0 0 42.666667h298.666667z"  horiz-adv-x="1024" />

    
    <glyph glyph-name="love-o" unicode="&#58629;" d="M1066.667 793.6C930.133 921.6 725.333 930.133 588.8 802.133 443.733 930.133 238.933 921.6 102.4 793.6c-136.533-136.533-136.533-349.867 0-486.4l401.067-401.067c42.666-42.666 110.933-42.666 153.6 0L1058.133 307.20000000000005c145.067 128 145.067 349.867 8.534 486.4z m-51.2-435.2L614.4-42.66700000000003c-17.067-17.066-34.133-17.066-51.2 0L153.6 358.4c-110.933 102.4-110.933 281.6 0 384 102.4 102.4 273.067 102.4 384 8.533l51.2-42.666 51.2 42.666c110.933 102.4 273.067 93.867 384-8.533 93.867-110.933 93.867-281.6-8.533-384z"  horiz-adv-x="1169" />

    
    <glyph glyph-name="shangxiajiantou" unicode="&#58888;" d="M519.145244 645.688889l223.300267-224.415289H295.822222L519.145244 645.688889z m0-542.606222L295.822222 327.497956h446.623289l-223.300267-224.415289z"  horiz-adv-x="1024" />

    
    <glyph glyph-name="caidan" unicode="&#58964;" d="M1004.807 681.49L808.362 877.937c-27.096 27.096-71.127 27.096-98.223 0L515.95 681.491c-27.095-27.096-27.095-71.127 0-98.223L711.268 387.95c27.096-27.095 71.127-27.095 98.223 0l195.316 196.446c25.967 27.096 25.967 71.127 0 97.094zM759.815 437.628L564.498 632.944 759.815 828.26 955.13 632.944 759.815 437.627zM352.247 832.777H64.353C25.967 832.776 0 810.196 0 771.81v-290.152c0-38.386 25.967-64.353 64.353-64.353h287.894c38.386 0 64.353 25.967 64.353 64.353V769.552c0 38.386-25.967 63.224-64.353 63.224z m0-544.177H64.353C25.967 288.6 0 255.859 0 217.473v-276.604C0-97.517 30.483-128 68.869-128h276.604c38.386 0 71.127 25.967 71.127 64.353V224.247c0 38.386-32.741 63.224-71.127 63.224l6.774 1.129z m480.953 0H608.53c-38.387 0-64.354-25.967-64.354-64.353v-287.894c0-38.386 38.386-64.353 76.772-64.353h276.604c38.386 0 63.224 25.967 63.224 64.353V224.247c0 38.386-25.967 64.353-64.353 64.353H833.2z"  horiz-adv-x="1025" />

    
    <glyph glyph-name="xiaofangzi" unicode="&#58630;" d="M809.4 500.1v180H708.1v-78.8L512 797.5 64.6 350.1h124.7v-379.6H424V128.70000000000005c0 52.4 39.4 94.9 88 94.9s88-42.5 88-94.9v-158.2h234.7V350.1h124.7l-150 150z"  horiz-adv-x="1024" />

    
    <glyph glyph-name="jd" unicode="&#58915;" d="M512-71.111111A455.111111 455.111111 0 1 0 512 839.111111a455.111111 455.111111 0 0 0 0-910.222222z m96.142222 242.744889c114.119111 0 206.677333 101.717333 206.677334 227.214222 0 125.44-92.558222 227.157333-206.620445 227.157333H470.357333v-454.371555h137.841778z m-372.053333 0c91.363556 0 165.376 71.793778 165.376 160.369778V626.005333H346.453333v-294.001777c0-59.050667-49.379556-106.951111-110.250666-106.951112h-27.534223v-53.475555h27.534223z m372.053333 400.952889H525.539556v-347.477334h82.659555c83.740444 0 151.552 77.767111 151.552 173.738667 0 95.914667-67.811556 173.738667-151.552 173.738667z"  horiz-adv-x="1024" />

    
    <glyph glyph-name="shuaxin" unicode="&#59280;" d="M509.166933 665.6A281.6 281.6 0 1 1 793.6 384a280.302933 280.302933 0 0 1-65.672533 180.770133 25.6 25.6 0 0 0 39.253333 32.904534A331.502933 331.502933 0 0 0 844.8 384c0-183.808-148.992-332.8-332.8-332.8S179.2 200.192 179.2 384c0 177.493333 138.922667 322.491733 313.924267 332.288l-45.056 45.056a25.6 25.6 0 1 0 36.181333 36.215467l96.5632-96.529067a25.6 25.6 0 0 0 0-36.215467l-96.5632-96.529066a25.6 25.6 0 1 0-36.181333 36.181333l61.098666 61.098667z"  horiz-adv-x="1024" />

    
    <glyph glyph-name="qr-code-br" unicode="&#58631;" d="M71.783696-55.77559499999995L71.783696-128 0-128l71.783696 72.224405z m143.567393 7.193924l0 137.267848 6.882835 6.921722 58.575392 0 0-79.418329L426.489519 16.189570000000003 426.489519-128l-65.445266 0 0 79.418329-143.580354 0L217.463899-128l-80.221975 0 0 79.41832899 78.109165 1e-8z m145.693164 208.973772l65.445266 0 0-64.784202-65.445266 0 0 64.784202z m145.680203 79.418329l0-79.418329-80.234937 0 0 79.418329 80.234937 0z m-76.8 64.771241L508.850228 384 652.404658 384l0-79.418329-65.445266 0 0-64.771241-80.234936 0 0 64.771241-76.8 0zM732.639595 463.418329L732.639595 384l-80.234937 0 0 79.418329 80.234937 0z m-80.234937 64.771241l0 0.25924 80.234937 80.714532 0-1.555443L941.652253 607.607899 941.652253 816.581671l-2.877569 1e-8L1017.700456 896 1024 896l0-367.81043-228.027949 0 0-64.77124099-63.332456-1e-8 0 64.771241-80.234937 0z m-145.680202-432.581671l0-79.418329-80.234937 0 0 79.418329 80.234937 0zM586.959392-128l-80.234936 0L506.724456 16.189570000000003l80.234936 0L586.959392-128z m0 223.607899l0 64.784202 65.445266 0 0 79.418329 80.234937 0 0 64.771241 65.445266 0 0-64.771241 80.234936 0L878.319797 384 943.765063 384l0-144.18957L1024 239.81043 1024-128l-371.595342 0L652.404658 95.60789899999997l-65.445266 0z m147.793013-144.18957L943.765063-48.58167100000003 943.765063 160.39210100000003l-209.012658 0 0-208.973772z m63.332456 64.771241l0 79.418329 80.234936 0 0-79.418329-80.234936 0z m0 447.228759l80.234936 0L878.319797 384l-80.234936 0 0 79.418329z m0 208.973772l0 2.631291 76.307443 76.787038 3.927493 0 0-79.418329-80.234936 0z"  horiz-adv-x="1024" />

    
    <glyph glyph-name="first" unicode="&#58632;" d="M657.212778 203.98918300000003c198.527542 34.618449 302.065663 272.621051 302.065663 485.913878-63.067384 0-134.414339 0-162.91751 0 9.620102 68.769246 15.646352 124.139322 15.646352 143.373385-91.650373 0-506.526335 0-598.173638 0 3.317559-36.776601 7.833409-87.304392 14.016225-143.373385-28.79686 0-99.963713 0-163.856905 0 0-216.192877 104.930841-453.824019 307.677475-486.460324 32.152281-41.288358 56.08025-58.536184 83.363639-67.988464 0-19.120476 0-47.786353 0-47.786353L339.263355 87.66792099999998l-86.837764-152.959717 520.990768 0L686.578596 87.66689799999995 570.804802 87.66689799999995l0 47.786353C595.832825 141.84993799999995 628.084367 168.71070199999997 657.212778 203.98918300000003zM715.530998 297.960415c24.75173 57.706283 52.937676 207.106941 72.409147 334.572008 12.798491 0 32.917714 0 60.302411 0 0-179.800016-78.458933-313.974901-135.833665-341.376994C713.450616 293.432285 714.549647 295.70607099999995 715.530998 297.960415zM175.243745 632.5314000000001c26.479071 0 46.303582 0 59.31799 0 15.940041-128.166031 40.496319-269.923616 78.456886-341.55198C254.878456 317.821765 175.243745 452.732407 175.243745 632.5314000000001zM399.837966 332.57784000000004L399.837966 392.694009l75.555813 0L475.393779 624.507656l-77.660754-17.544585 0 61.98882 153.216567 32.280194L550.949592 392.694009l75.088162 0 0-60.117193L399.837966 332.576817z"  horiz-adv-x="1024" />

    


  </font>
</defs>
</svg>
